<?xml version="1.0" encoding="UTF-8" standalone="no"?>
<!-- Created with Inkscape (http://www.inkscape.org/) -->

<svg
   xmlns:dc="http://purl.org/dc/elements/1.1/"
   xmlns:cc="http://creativecommons.org/ns#"
   xmlns:rdf="http://www.w3.org/1999/02/22-rdf-syntax-ns#"
   xmlns:svg="http://www.w3.org/2000/svg"
   xmlns="http://www.w3.org/2000/svg"
   xmlns:sodipodi="http://sodipodi.sourceforge.net/DTD/sodipodi-0.dtd"
   xmlns:inkscape="http://www.inkscape.org/namespaces/inkscape"
   width="246.89552"
   height="69.33902"
   id="svg9544"
   sodipodi:version="0.32"
   inkscape:version="0.47 r22583"
   sodipodi:docname="pant-merge-st.svg"
   inkscape:export-filename="/home/jm/recherche/IMATI/reports/june2010/pant-merge-st.png"
   inkscape:export-xdpi="689.39417"
   inkscape:export-ydpi="689.39417"
   inkscape:output_extension="org.inkscape.output.svg.inkscape"
   version="1.0">
  <defs
     id="defs9546">
    <inkscape:perspective
       sodipodi:type="inkscape:persp3d"
       inkscape:vp_x="0 : 526.18109 : 1"
       inkscape:vp_y="0 : 1000 : 0"
       inkscape:vp_z="744.09448 : 526.18109 : 1"
       inkscape:persp3d-origin="372.04724 : 350.78739 : 1"
       id="perspective2704" />
    <inkscape:perspective
       id="perspective4752"
       inkscape:persp3d-origin="0.5 : 0.33333333 : 1"
       inkscape:vp_z="1 : 0.5 : 1"
       inkscape:vp_y="0 : 1000 : 0"
       inkscape:vp_x="0 : 0.5 : 1"
       sodipodi:type="inkscape:persp3d" />
    <inkscape:perspective
       id="perspective4774"
       inkscape:persp3d-origin="0.5 : 0.33333333 : 1"
       inkscape:vp_z="1 : 0.5 : 1"
       inkscape:vp_y="0 : 1000 : 0"
       inkscape:vp_x="0 : 0.5 : 1"
       sodipodi:type="inkscape:persp3d" />
    <inkscape:perspective
       id="perspective4817"
       inkscape:persp3d-origin="0.5 : 0.33333333 : 1"
       inkscape:vp_z="1 : 0.5 : 1"
       inkscape:vp_y="0 : 1000 : 0"
       inkscape:vp_x="0 : 0.5 : 1"
       sodipodi:type="inkscape:persp3d" />
    <inkscape:perspective
       id="perspective4901"
       inkscape:persp3d-origin="0.5 : 0.33333333 : 1"
       inkscape:vp_z="1 : 0.5 : 1"
       inkscape:vp_y="0 : 1000 : 0"
       inkscape:vp_x="0 : 0.5 : 1"
       sodipodi:type="inkscape:persp3d" />
    <inkscape:perspective
       id="perspective4927"
       inkscape:persp3d-origin="0.5 : 0.33333333 : 1"
       inkscape:vp_z="1 : 0.5 : 1"
       inkscape:vp_y="0 : 1000 : 0"
       inkscape:vp_x="0 : 0.5 : 1"
       sodipodi:type="inkscape:persp3d" />
    <inkscape:perspective
       id="perspective4994"
       inkscape:persp3d-origin="0.5 : 0.33333333 : 1"
       inkscape:vp_z="1 : 0.5 : 1"
       inkscape:vp_y="0 : 1000 : 0"
       inkscape:vp_x="0 : 0.5 : 1"
       sodipodi:type="inkscape:persp3d" />
    <inkscape:perspective
       id="perspective5022"
       inkscape:persp3d-origin="0.5 : 0.33333333 : 1"
       inkscape:vp_z="1 : 0.5 : 1"
       inkscape:vp_y="0 : 1000 : 0"
       inkscape:vp_x="0 : 0.5 : 1"
       sodipodi:type="inkscape:persp3d" />
  </defs>
  <sodipodi:namedview
     id="base"
     pagecolor="white"
     bordercolor="#666666"
     borderopacity="1.0"
     inkscape:pageopacity="1"
     inkscape:pageshadow="2"
     inkscape:zoom="3.959798"
     inkscape:cx="136.417"
     inkscape:cy="33.795222"
     inkscape:document-units="px"
     inkscape:current-layer="layer1"
     inkscape:window-width="1276"
     inkscape:window-height="754"
     inkscape:window-x="0"
     inkscape:window-y="0"
     showgrid="false"
     inkscape:window-maximized="1" />
  <metadata
     id="metadata9549">
    <rdf:RDF>
      <cc:Work
         rdf:about="">
        <dc:format>image/svg+xml</dc:format>
        <dc:type
           rdf:resource="http://purl.org/dc/dcmitype/StillImage" />
        <dc:title></dc:title>
      </cc:Work>
    </rdf:RDF>
  </metadata>
  <g
     inkscape:label="Calque 1"
     inkscape:groupmode="layer"
     id="layer1"
     transform="translate(-186.95062,-217.3622)">
    <path
       style="fill:#dad6cc;fill-opacity:1;fill-rule:evenodd;stroke:none"
       d="m -89.625,0.21875 c -8.179854,0.47005329 -12.02625,11.577661 -9.84375,15.0625 5.04601,5.51675 11.03508,8.17749 14.8125,17.5 -9.23731,8.46027 -19.06613,11.00537 -28.75,15 -5.98023,8.97799 3.26484,18.5179 14.46875,19.65625 8.32544,-6.77026 17.78674,-12.94174 30.375,-17.34375 26.70297,-1.41914 52.923277,-0.547245 76.9367077,0.274905 25.6128683,0.385874 48.6251873,-0.465933 74.4070423,0.412595 12.58826,4.40202 22.01831,10.54224 30.34375,17.3125 11.20391,-1.13835 20.44898,-10.67826 14.46875,-19.65625 -9.68387,-3.99462 -19.51269,-6.53973 -28.75,-15 3.77742,-9.32251 9.76649,-11.98325 14.8125,-17.5 C 116.24292,11.80732 110.37271,-3.00715 98.84375,1.84375 86.310749,18.635298 36.280667,34.353747 7.0472712,32.350095 -46.548516,28.67665 -67.176742,14.049549 -84.65625,1.1875 -86.45765,0.42954688 -88.110212,0.13170309 -89.625,0.21875 z"
       transform="translate(303.29675,218.02318)"
       id="path24256"
       sodipodi:nodetypes="cccccccccccccscc" />
    <path
       style="fill:#a19b8e;fill-opacity:1;fill-rule:evenodd;stroke:none"
       d="m 119.82935,50.242756 c 3.80148,-2.154644 8.28421,-2.515 10.10152,1.010152 1.81731,3.525152 -4.84561,11.810037 -8.08122,14.142136 -3.23561,2.332099 -8.38066,4.574397 -10.6066,0.883883 -2.16984,-3.597504 4.78482,-13.881527 8.5863,-16.036171 z"
       id="path3203"
       transform="translate(303.29675,218.02318)"
       sodipodi:nodetypes="czzzz" />
    <path
       style="fill:none;stroke:#c11200;stroke-width:1.20000005;stroke-linecap:round;stroke-linejoin:round;stroke-miterlimit:4;stroke-opacity:1;stroke-dasharray:1.20000005, 3.60000014;stroke-dashoffset:0"
       d="m 401.57929,220.40781 c -3.73619,4.83449 5.48695,18.27296 14.36863,13.7157"
       id="path1892"
       sodipodi:nodetypes="cc" />
    <path
       style="fill:none;stroke:#c11200;stroke-width:1.20000005;stroke-linecap:round;stroke-linejoin:round;stroke-miterlimit:4;stroke-opacity:1;stroke-dasharray:none"
       d="m 416.49124,234.42027 c 5.3731,-6.88313 -8.43168,-20.09564 -14.45093,-14.41337"
       id="path1894"
       sodipodi:nodetypes="cc" />
    <path
       style="fill:none;stroke:#000000;stroke-width:1.20000005;stroke-linecap:round;stroke-linejoin:round;stroke-miterlimit:4;stroke-opacity:1;stroke-dasharray:none"
       d="m -84.84375,1.46875 c 0,0 34.948143,30.281885 94.0812977,30.61001 C 68.370703,32.406885 99.0625,2.125 99.0625,2.125"
       transform="translate(303.29675,218.02318)"
       id="path2258"
       sodipodi:nodetypes="ccc" />
    <path
       style="fill:none;stroke:#000000;stroke-width:1.20000005;stroke-linecap:round;stroke-linejoin:round;stroke-miterlimit:4;stroke-opacity:1;stroke-dasharray:none"
       d="m -98.1875,66.53125 c 0,0 14.2156,-11.31371 26.65625,-15.3125 4.665244,-1.499539 13.883483,-2.04689 24.625,-2.09375 17.902528,-0.0781 39.8848436,1.083096 53.8893559,1.427347 C 20.946831,50.895596 43.191222,49.70315 61.09375,49.78125 c 10.741517,0.04686 19.959756,0.625457 24.625,2.125 C 98.1594,55.90503 112.375,67.1875 112.375,67.1875"
       transform="translate(303.29675,218.02318)"
       id="path2260"
       sodipodi:nodetypes="cscscsc" />
    <path
       style="fill:none;stroke:#000000;stroke-width:1.20000005;stroke-linecap:round;stroke-linejoin:round;stroke-miterlimit:4;stroke-opacity:1;stroke-dasharray:none"
       d="m 430.42265,266.49275 c -6.09019,-2.14532 -26.29046,-9.90494 -28.0677,-14.79233 -1.77724,-4.8874 14.21789,-17.32805 14.21789,-17.32805"
       id="path2262"
       sodipodi:nodetypes="csc" />
    <path
       style="fill:none;stroke:#c11200;stroke-width:1.20000005;stroke-linecap:round;stroke-linejoin:round;stroke-miterlimit:4;stroke-opacity:1;stroke-dasharray:none"
       d="m 415.03433,284.6187 c 5.59807,6.78252 23.42651,-11.58488 16.72782,-17.26365 -6.66066,-5.64652 -21.69544,11.24495 -16.72782,17.26365 z"
       id="path1890"
       sodipodi:nodetypes="css" />
    <path
       style="fill:#c11200;fill-opacity:0.4;stroke:none"
       d="m 112.14286,66.892325 c -1.50262,-4.403562 -2.12348,-9.037147 7.14285,-16.25 7.03195,-3.667988 8.83292,-1.895759 10,0.535715 0.75472,6.077524 -3.68861,9.184739 -5.89285,13.571428 -3.75,1.931308 -7.5,3.496703 -11.25,2.142857 z"
       id="path4232"
       transform="translate(303.29675,218.02318)"
       sodipodi:nodetypes="ccccc" />
    <path
       style="fill:#c11200;fill-opacity:0.4;stroke:none"
       d="m 416.29394,234.90632 c 1.50262,-4.40356 2.56991,-7.78715 -6.69642,-15 -7.03195,-3.66799 -7.58292,0.42567 -8.75,2.85714 0.14425,8.49209 7.15043,13.92161 15.44642,12.14286 z"
       id="path4232-4"
       sodipodi:nodetypes="cccc" />
    <path
       style="fill:#a19b8e;fill-opacity:1;fill-rule:evenodd;stroke:none"
       d="m 197.67067,267.60495 c -3.80148,-2.15464 -8.28421,-2.515 -10.10152,1.01015 -1.81731,3.52516 4.84561,11.81004 8.08122,14.14214 3.23561,2.3321 8.38066,4.5744 10.6066,0.88388 2.16984,-3.5975 -4.78482,-13.88152 -8.5863,-16.03617 z"
       id="path3203-9"
       sodipodi:nodetypes="czzzz" />
    <path
       style="fill:none;stroke:#c11200;stroke-width:1.20000005;stroke-linecap:round;stroke-linejoin:round;stroke-miterlimit:4;stroke-opacity:1;stroke-dasharray:1.20000005, 3.60000014;stroke-dashoffset:0"
       d="m 219.21748,219.74683 c 3.73619,4.83449 -5.48695,18.27295 -14.36863,13.7157"
       id="path1892-6"
       sodipodi:nodetypes="cc" />
    <path
       style="fill:none;stroke:#c11200;stroke-width:1.20000005;stroke-linecap:round;stroke-linejoin:round;stroke-miterlimit:4;stroke-opacity:1;stroke-dasharray:none"
       d="m 204.30553,233.75929 c -5.3731,-6.88313 8.43168,-20.09564 14.45093,-14.41337"
       id="path1894-3"
       sodipodi:nodetypes="cc" />
    <path
       style="fill:none;stroke:#000000;stroke-width:1.20000005;stroke-linecap:round;stroke-linejoin:round;stroke-miterlimit:4;stroke-opacity:1;stroke-dasharray:none"
       d="m 190.37412,265.83177 c 6.09019,-2.14532 26.29046,-9.90495 28.0677,-14.79233 1.77724,-4.8874 -14.21789,-17.32805 -14.21789,-17.32805"
       id="path2262-6"
       sodipodi:nodetypes="csc" />
    <path
       style="fill:none;stroke:#c11200;stroke-width:1.20000005;stroke-linecap:round;stroke-linejoin:round;stroke-miterlimit:4;stroke-opacity:1;stroke-dasharray:none"
       d="m 205.76244,283.95771 c -5.59807,6.78253 -23.42651,-11.58488 -16.72782,-17.26364 6.66066,-5.64653 21.69544,11.24495 16.72782,17.26364 z"
       id="path1890-6"
       sodipodi:nodetypes="css" />
    <path
       style="fill:#c11200;fill-opacity:0.4;stroke:none"
       d="m 205.35716,284.25452 c 1.50262,-4.40356 2.12348,-9.03715 -7.14285,-16.25 -7.03195,-3.66799 -8.83292,-1.89576 -10,0.53572 -0.75472,6.07752 3.68861,9.18473 5.89285,13.57142 3.75,1.93131 7.5,3.49671 11.25,2.14286 z"
       id="path4232-6"
       sodipodi:nodetypes="ccccc" />
    <path
       style="fill:#c11200;fill-opacity:0.4;stroke:none"
       d="m 204.50283,234.24534 c -1.50262,-4.40356 -2.56991,-7.78715 6.69642,-15 7.03195,-3.66799 7.58292,0.42567 8.75,2.85714 -0.14425,8.49208 -7.15043,13.9216 -15.44642,12.14286 z"
       id="path4232-4-6"
       sodipodi:nodetypes="cccc" />
    <path
       style="fill:none;stroke:#c11200;stroke-width:1px;stroke-linecap:round;stroke-linejoin:round;stroke-opacity:1"
       d="m 7.8571429,48.446163 c 0,0 23.3587931,-4.927006 25.5357141,-14.464286 1.579982,-6.922041 -12.142857,-17.5 -12.142857,-17.5"
       id="path4891"
       transform="translate(186.95062,217.3622)"
       sodipodi:nodetypes="csc" />
    <path
       style="fill:none;stroke:#c11200;stroke-width:1px;stroke-linecap:round;stroke-linejoin:round;stroke-opacity:1"
       d="m 424.2461,266.79051 c 0,0 -23.35879,-4.92701 -25.53571,-14.46429 -1.57999,-6.92204 12.14285,-17.5 12.14285,-17.5"
       id="path4891-2"
       sodipodi:nodetypes="csc" />
    <text
       xml:space="preserve"
       style="font-size:22.11815071px;font-style:normal;font-weight:normal;fill:#000000;fill-opacity:1;stroke:none;font-family:Bitstream Vera Sans"
       x="191.66423"
       y="243.45474"
       id="text4915"><tspan
         sodipodi:role="line"
         id="tspan4917"
         x="191.66423"
         y="243.45474"
         style="font-style:normal;font-variant:normal;font-weight:normal;font-stretch:normal;font-family:cmmi10;-inkscape-font-specification:cmmi10">s</tspan></text>
    <text
       xml:space="preserve"
       style="font-size:22.11815071px;font-style:normal;font-weight:normal;fill:#000000;fill-opacity:1;stroke:none;font-family:Bitstream Vera Sans"
       x="415.0903"
       y="252.32056"
       id="text4915-9"><tspan
         sodipodi:role="line"
         id="tspan4917-0"
         x="415.0903"
         y="252.32056"
         style="font-style:normal;font-variant:normal;font-weight:normal;font-stretch:normal;font-family:cmmi10;-inkscape-font-specification:cmmi10">t</tspan></text>
    <path
       style="fill:none;stroke:#c11200;stroke-width:1.20000005;stroke-linecap:round;stroke-linejoin:round;stroke-miterlimit:4;stroke-opacity:1;stroke-dasharray:1.20000005, 3.60000014;stroke-dashoffset:0"
       d="m 313.82668,268.38201 c -4.97205,-2.51817 -3.25456,-18.2584 1.67319,-18.39257"
       id="path4035"
       sodipodi:nodetypes="cc" />
    <path
       style="fill:none;stroke:#c11200;stroke-width:1.20000005;stroke-linecap:round;stroke-linejoin:round;stroke-miterlimit:4;stroke-opacity:1;stroke-dasharray:none"
       d="m 315.28603,249.69568 c 6.42184,1.70684 3.86166,18.3638 -0.85393,18.95778"
       id="path4037"
       sodipodi:nodetypes="cc" />
    <path
       style="fill:#c11200;fill-opacity:0.4;stroke:none"
       d="m 313.63971,268.56342 c -2.20897,0.19254 -5.13611,-13.4896 1.2941,-18.80679 4.48076,-2.08898 7.27627,19.29584 -1.2941,18.80679 z"
       id="path4232-4-4"
       sodipodi:nodetypes="ccc" />
    <text
       xml:space="preserve"
       style="font-size:16.85978127px;font-style:normal;font-weight:normal;fill:#000000;fill-opacity:1;stroke:none;font-family:Bitstream Vera Sans"
       x="288.435"
       y="241.0154"
       id="text4915-4"><tspan
         sodipodi:role="line"
         id="tspan4917-7"
         x="288.435"
         y="241.0154"
         style="font-style:normal;font-variant:normal;font-weight:normal;font-stretch:normal;font-family:cmmi10;-inkscape-font-specification:cmmi10">min<tspan
   style="font-style:italic;font-variant:normal;font-weight:bold;font-stretch:normal;font-family:LMMathExtension10;-inkscape-font-specification:LMMathExtension10 Bold Italic"
   id="tspan5039">-</tspan>cut</tspan></text>
  </g>
</svg>
